<svg width="16" height="16" viewBox="0 0 16 16" fill="none" xmlns="http://www.w3.org/2000/svg">
<path d="M6.53267 3.90909H4.73011C4.71733 3.75994 4.68324 3.62464 4.62784 3.5032C4.57457 3.38175 4.5 3.27734 4.40412 3.18999C4.31037 3.1005 4.19638 3.03232 4.06214 2.98544C3.92791 2.93643 3.77557 2.91193 3.60511 2.91193C3.30682 2.91193 3.05433 2.98437 2.84766 3.12926C2.64311 3.27415 2.48757 3.48189 2.38104 3.75249C2.27663 4.02308 2.22443 4.34801 2.22443 4.72727C2.22443 5.12784 2.2777 5.46342 2.38423 5.73402C2.4929 6.00249 2.6495 6.2049 2.85405 6.34126C3.05859 6.4755 3.30469 6.54261 3.59233 6.54261C3.75639 6.54261 3.90341 6.52237 4.03338 6.48189C4.16335 6.43928 4.27628 6.37855 4.37216 6.29972C4.46804 6.22088 4.54581 6.12607 4.60547 6.01527C4.66726 5.90234 4.70881 5.77557 4.73011 5.63494L6.53267 5.64773C6.51136 5.92472 6.43359 6.20703 6.29936 6.49467C6.16513 6.78018 5.97443 7.04439 5.72727 7.28729C5.48224 7.52805 5.17862 7.72195 4.81641 7.86896C4.45419 8.01598 4.03338 8.08949 3.55398 8.08949C2.95312 8.08949 2.41406 7.96058 1.93679 7.70277C1.46165 7.44496 1.08558 7.0657 0.808594 6.56499C0.533736 6.06428 0.396307 5.4517 0.396307 4.72727C0.396307 3.99858 0.536932 3.38494 0.818182 2.88636C1.09943 2.38565 1.47869 2.00746 1.95597 1.75178C2.43324 1.49396 2.96591 1.36506 3.55398 1.36506C3.96733 1.36506 4.34766 1.42152 4.69496 1.53445C5.04226 1.64737 5.34695 1.8125 5.60902 2.02983C5.87109 2.24503 6.08203 2.5103 6.24183 2.82564C6.40163 3.14098 6.49858 3.50213 6.53267 3.90909ZM7.33887 8V1.45455H9.11586V6.56818H11.7622V8H7.33887ZM2.12216 15H0.204545L2.36506 8.45455H4.79403L6.95455 15H5.03693L3.60511 10.2571H3.55398L2.12216 15ZM1.7642 12.4176H5.36932V13.7472H1.7642V12.4176ZM10.8585 10.5C10.8414 10.2869 10.7615 10.1207 10.6188 10.0014C10.4782 9.8821 10.264 9.82244 9.97638 9.82244C9.79315 9.82244 9.64293 9.84482 9.52575 9.88956C9.41069 9.93217 9.32546 9.99077 9.27006 10.0653C9.21467 10.1399 9.1859 10.2251 9.18377 10.321C9.17951 10.3999 9.19336 10.4712 9.22532 10.5352C9.25941 10.5969 9.31268 10.6534 9.38512 10.7045C9.45756 10.7536 9.55025 10.7983 9.66317 10.8388C9.7761 10.8793 9.91033 10.9155 10.0659 10.9474L10.6028 11.0625C10.965 11.1392 11.275 11.2404 11.5328 11.3661C11.7907 11.4918 12.0016 11.6399 12.1657 11.8104C12.3297 11.9787 12.4501 12.1683 12.5268 12.3793C12.6056 12.5902 12.6461 12.8203 12.6483 13.0696C12.6461 13.5 12.5385 13.8643 12.3255 14.1626C12.1124 14.4609 11.8077 14.6879 11.4114 14.8434C11.0172 14.9989 10.5431 15.0767 9.98917 15.0767C9.42028 15.0767 8.92383 14.9925 8.49982 14.8242C8.07795 14.6559 7.74982 14.397 7.51545 14.0476C7.2832 13.696 7.16602 13.2464 7.16388 12.6989H8.85138C8.86204 12.8991 8.91211 13.0675 9.0016 13.2038C9.09109 13.3402 9.2168 13.4435 9.37873 13.5138C9.54279 13.5842 9.73775 13.6193 9.9636 13.6193C10.1532 13.6193 10.312 13.5959 10.4398 13.549C10.5676 13.5021 10.6646 13.4371 10.7306 13.354C10.7967 13.271 10.8308 13.1761 10.8329 13.0696C10.8308 12.9695 10.7978 12.8821 10.7338 12.8075C10.6721 12.7308 10.5698 12.6626 10.427 12.603C10.2843 12.5412 10.0914 12.4837 9.84854 12.4304L9.19656 12.2898C8.61701 12.1641 8.15998 11.9542 7.82546 11.6602C7.49308 11.364 7.32795 10.9602 7.33008 10.4489C7.32795 10.0334 7.43874 9.6701 7.66246 9.35902C7.88832 9.04581 8.20046 8.80185 8.5989 8.62713C8.99947 8.45241 9.45863 8.36506 9.97638 8.36506C10.5048 8.36506 10.9618 8.45348 11.3475 8.63033C11.7331 8.80717 12.0304 9.05646 12.2392 9.3782C12.4501 9.6978 12.5566 10.0717 12.5588 10.5H10.8585ZM14.3086 15.1023C14.0614 15.1023 13.8494 15.016 13.6726 14.8434C13.4979 14.6687 13.4116 14.4567 13.4137 14.2074C13.4116 13.9645 13.4979 13.7567 13.6726 13.5842C13.8494 13.4116 14.0614 13.3253 14.3086 13.3253C14.543 13.3253 14.7496 13.4116 14.9286 13.5842C15.1097 13.7567 15.2013 13.9645 15.2035 14.2074C15.2013 14.3736 15.1577 14.5249 15.0724 14.6612C14.9893 14.7955 14.8807 14.9031 14.7464 14.984C14.6122 15.0629 14.4663 15.1023 14.3086 15.1023Z" fill="#FF7085"/>
</svg>
