<svg width="16" height="16" viewBox="0 0 16 16" fill="none" xmlns="http://www.w3.org/2000/svg">
<path d="M6.53267 3.90909H4.73011C4.71733 3.75994 4.68324 3.62464 4.62784 3.5032C4.57457 3.38175 4.5 3.27734 4.40412 3.18999C4.31037 3.1005 4.19638 3.03232 4.06214 2.98544C3.92791 2.93643 3.77557 2.91193 3.60511 2.91193C3.30682 2.91193 3.05433 2.98437 2.84766 3.12926C2.64311 3.27415 2.48757 3.48189 2.38104 3.75249C2.27663 4.02308 2.22443 4.34801 2.22443 4.72727C2.22443 5.12784 2.2777 5.46342 2.38423 5.73402C2.4929 6.00249 2.6495 6.2049 2.85405 6.34126C3.05859 6.4755 3.30469 6.54261 3.59233 6.54261C3.75639 6.54261 3.90341 6.52237 4.03338 6.48189C4.16335 6.43928 4.27628 6.37855 4.37216 6.29972C4.46804 6.22088 4.54581 6.12607 4.60547 6.01527C4.66726 5.90234 4.70881 5.77557 4.73011 5.63494L6.53267 5.64773C6.51136 5.92472 6.43359 6.20703 6.29936 6.49467C6.16513 6.78018 5.97443 7.04439 5.72727 7.28729C5.48224 7.52805 5.17862 7.72195 4.81641 7.86896C4.45419 8.01598 4.03338 8.08949 3.55398 8.08949C2.95312 8.08949 2.41406 7.96058 1.93679 7.70277C1.46165 7.44496 1.08558 7.0657 0.808594 6.56499C0.533736 6.06428 0.396307 5.4517 0.396307 4.72727C0.396307 3.99858 0.536932 3.38494 0.818182 2.88636C1.09943 2.38565 1.47869 2.00746 1.95597 1.75178C2.43324 1.49396 2.96591 1.36506 3.55398 1.36506C3.96733 1.36506 4.34766 1.42152 4.69496 1.53445C5.04226 1.64737 5.34695 1.8125 5.60902 2.02983C5.87109 2.24503 6.08203 2.5103 6.24183 2.82564C6.40163 3.14098 6.49858 3.50213 6.53267 3.90909ZM13.6798 4.72727C13.6798 5.45597 13.5381 6.07067 13.2547 6.57138C12.9713 7.06996 12.5889 7.44815 12.1073 7.70597C11.6258 7.96165 11.0889 8.08949 10.4965 8.08949C9.89995 8.08949 9.36088 7.96058 8.87935 7.70277C8.39995 7.44283 8.01855 7.06357 7.73517 6.56499C7.45392 6.06428 7.3133 5.4517 7.3133 4.72727C7.3133 3.99858 7.45392 3.38494 7.73517 2.88636C8.01855 2.38565 8.39995 2.00746 8.87935 1.75178C9.36088 1.49396 9.89995 1.36506 10.4965 1.36506C11.0889 1.36506 11.6258 1.49396 12.1073 1.75178C12.5889 2.00746 12.9713 2.38565 13.2547 2.88636C13.5381 3.38494 13.6798 3.99858 13.6798 4.72727ZM11.8517 4.72727C11.8517 4.33523 11.7994 4.00497 11.695 3.73651C11.5928 3.46591 11.4404 3.26136 11.238 3.12287C11.0377 2.98224 10.7906 2.91193 10.4965 2.91193C10.2025 2.91193 9.95428 2.98224 9.75186 3.12287C9.55158 3.26136 9.39924 3.46591 9.29483 3.73651C9.19256 4.00497 9.14142 4.33523 9.14142 4.72727C9.14142 5.11932 9.19256 5.45064 9.29483 5.72124C9.39924 5.9897 9.55158 6.19425 9.75186 6.33487C9.95428 6.47337 10.2025 6.54261 10.4965 6.54261C10.7906 6.54261 11.0377 6.47337 11.238 6.33487C11.4404 6.19425 11.5928 5.9897 11.695 5.72124C11.7994 5.45064 11.8517 5.11932 11.8517 4.72727ZM6.08523 8.45455V15H4.60227L2.23722 11.5611H2.19886V15H0.421875V8.45455H1.9304L4.2571 11.8807H4.30824V8.45455H6.08523ZM10.4542 10.5C10.4371 10.2869 10.3572 10.1207 10.2145 10.0014C10.0739 9.8821 9.85973 9.82244 9.57209 9.82244C9.38885 9.82244 9.23864 9.84482 9.12145 9.88956C9.00639 9.93217 8.92116 9.99077 8.86577 10.0653C8.81037 10.1399 8.78161 10.2251 8.77947 10.321C8.77521 10.3999 8.78906 10.4712 8.82102 10.5352C8.85511 10.5969 8.90838 10.6534 8.98082 10.7045C9.05327 10.7536 9.14595 10.7983 9.25888 10.8388C9.3718 10.8793 9.50604 10.9155 9.66158 10.9474L10.1985 11.0625C10.5607 11.1392 10.8707 11.2404 11.1286 11.3661C11.3864 11.4918 11.5973 11.6399 11.7614 11.8104C11.9254 11.9787 12.0458 12.1683 12.1225 12.3793C12.2013 12.5902 12.2418 12.8203 12.244 13.0696C12.2418 13.5 12.1342 13.8643 11.9212 14.1626C11.7081 14.4609 11.4034 14.6879 11.0071 14.8434C10.6129 14.9989 10.1388 15.0767 9.58487 15.0767C9.01598 15.0767 8.51953 14.9925 8.09553 14.8242C7.67365 14.6559 7.34553 14.397 7.11115 14.0476C6.87891 13.696 6.76172 13.2464 6.75959 12.6989H8.44709C8.45774 12.8991 8.50781 13.0675 8.5973 13.2038C8.68679 13.3402 8.8125 13.4435 8.97443 13.5138C9.13849 13.5842 9.33345 13.6193 9.5593 13.6193C9.74893 13.6193 9.90767 13.5959 10.0355 13.549C10.1634 13.5021 10.2603 13.4371 10.3263 13.354C10.3924 13.271 10.4265 13.1761 10.4286 13.0696C10.4265 12.9695 10.3935 12.8821 10.3295 12.8075C10.2678 12.7308 10.1655 12.6626 10.0227 12.603C9.87997 12.5412 9.68714 12.4837 9.44425 12.4304L8.79226 12.2898C8.21271 12.1641 7.75568 11.9542 7.42116 11.6602C7.08878 11.364 6.92365 10.9602 6.92578 10.4489C6.92365 10.0334 7.03445 9.6701 7.25817 9.35902C7.48402 9.04581 7.79616 8.80185 8.1946 8.62713C8.59517 8.45241 9.05433 8.36506 9.57209 8.36506C10.1005 8.36506 10.5575 8.45348 10.9432 8.63033C11.3288 8.80717 11.6261 9.05646 11.8349 9.3782C12.0458 9.6978 12.1523 10.0717 12.1545 10.5H10.4542ZM13.9043 15.1023C13.6571 15.1023 13.4451 15.016 13.2683 14.8434C13.0936 14.6687 13.0073 14.4567 13.0094 14.2074C13.0073 13.9645 13.0936 13.7567 13.2683 13.5842C13.4451 13.4116 13.6571 13.3253 13.9043 13.3253C14.1387 13.3253 14.3453 13.4116 14.5243 13.5842C14.7054 13.7567 14.7971 13.9645 14.7992 14.2074C14.7971 14.3736 14.7534 14.5249 14.6681 14.6612C14.585 14.7955 14.4764 14.9031 14.3422 14.984C14.2079 15.0629 14.062 15.1023 13.9043 15.1023Z" fill="#BC70FF"/>
</svg>
