<svg width="16" height="16" viewBox="0 0 16 16" fill="none" xmlns="http://www.w3.org/2000/svg">
<path d="M0.421875 8V1.45455H5.1392V2.88636H2.19886V4.01136H4.89631V5.44318H2.19886V6.56818H5.12642V8H0.421875ZM11.6839 1.45455V8H10.2009L7.83585 4.56108H7.7975V8H6.02051V1.45455H7.52903L9.85574 4.88068H9.90687V1.45455H11.6839ZM4.67259 10.6151C4.64489 10.5021 4.60121 10.4031 4.54155 10.3178C4.48189 10.2305 4.40732 10.157 4.31783 10.0973C4.23047 10.0355 4.1282 9.9897 4.01101 9.95987C3.89595 9.92791 3.76918 9.91193 3.63068 9.91193C3.33239 9.91193 3.07777 9.98331 2.86683 10.1261C2.65803 10.2688 2.49822 10.4744 2.38743 10.7429C2.27876 11.0114 2.22443 11.3352 2.22443 11.7145C2.22443 12.098 2.27663 12.4261 2.38104 12.6989C2.48544 12.9716 2.64098 13.1804 2.84766 13.3253C3.05433 13.4702 3.31108 13.5426 3.6179 13.5426C3.88849 13.5426 4.11328 13.5032 4.29226 13.4244C4.47337 13.3455 4.60867 13.2337 4.69815 13.0888C4.78764 12.9439 4.83239 12.7734 4.83239 12.5774L5.1392 12.6094H3.64347V11.3438H6.54545V12.2514C6.54545 12.848 6.41868 13.3583 6.16513 13.7823C5.91371 14.2042 5.56641 14.5281 5.12322 14.7539C4.68217 14.9776 4.17614 15.0895 3.60511 15.0895C2.96804 15.0895 2.40874 14.9542 1.9272 14.6836C1.44567 14.413 1.0696 14.0273 0.799006 13.5266C0.53054 13.0259 0.396307 12.4304 0.396307 11.7401C0.396307 11.1989 0.478338 10.7195 0.642401 10.3018C0.808594 9.88423 1.03871 9.53161 1.33274 9.24396C1.62678 8.95419 1.96662 8.7358 2.35227 8.58878C2.73793 8.43963 3.15128 8.36506 3.59233 8.36506C3.98011 8.36506 4.3402 8.42045 4.67259 8.53125C5.0071 8.63991 5.3022 8.79545 5.55788 8.99787C5.8157 9.19815 6.02344 9.43572 6.18111 9.71058C6.33878 9.98544 6.43466 10.2869 6.46875 10.6151H4.67259ZM9.15101 8.45455V15H7.37402V8.45455H9.15101ZM10.9775 15.1023C10.7304 15.1023 10.5184 15.016 10.3415 14.8434C10.1668 14.6687 10.0805 14.4567 10.0827 14.2074C10.0805 13.9645 10.1668 13.7567 10.3415 13.5842C10.5184 13.4116 10.7304 13.3253 10.9775 13.3253C11.2119 13.3253 11.4186 13.4116 11.5976 13.5842C11.7787 13.7567 11.8703 13.9645 11.8724 14.2074C11.8703 14.3736 11.8266 14.5249 11.7414 14.6612C11.6583 14.7955 11.5496 14.9031 11.4154 14.984C11.2812 15.0629 11.1352 15.1023 10.9775 15.1023Z" fill="#578CFF"/>
</svg>
