<svg width="16" height="16" viewBox="0 0 16 16" fill="none" xmlns="http://www.w3.org/2000/svg">
<path d="M0.421875 8V1.45455H5.1392V2.88636H2.19886V4.01136H4.89631V5.44318H2.19886V6.56818H5.12642V8H0.421875ZM7.92534 1.45455L8.9992 3.35938H9.05034L10.137 1.45455H12.1185L10.1626 4.72727L12.1952 8H10.1626L9.05034 6.05682H8.9992L7.88699 8H5.8671L7.8742 4.72727L5.93102 1.45455H7.92534ZM0.421875 15V8.45455H3.24716C3.73295 8.45455 4.15803 8.55043 4.52237 8.74219C4.88672 8.93395 5.1701 9.20348 5.37251 9.55078C5.57493 9.89808 5.67614 10.304 5.67614 10.7685C5.67614 11.2372 5.57173 11.6431 5.36293 11.9862C5.15625 12.3292 4.86541 12.5934 4.49041 12.7788C4.11754 12.9641 3.68182 13.0568 3.18324 13.0568H1.49574V11.6761H2.82528C3.03409 11.6761 3.212 11.6399 3.35902 11.5675C3.50817 11.4929 3.62216 11.3874 3.70099 11.2511C3.78196 11.1147 3.82244 10.9538 3.82244 10.7685C3.82244 10.581 3.78196 10.4212 3.70099 10.2891C3.62216 10.1548 3.50817 10.0526 3.35902 9.98224C3.212 9.9098 3.03409 9.87358 2.82528 9.87358H2.19886V15H0.421875ZM12.669 11.7273C12.669 12.456 12.5273 13.0707 12.244 13.5714C11.9606 14.07 11.5781 14.4482 11.0966 14.706C10.6151 14.9616 10.0781 15.0895 9.4858 15.0895C8.8892 15.0895 8.35014 14.9606 7.86861 14.7028C7.3892 14.4428 7.00781 14.0636 6.72443 13.565C6.44318 13.0643 6.30256 12.4517 6.30256 11.7273C6.30256 10.9986 6.44318 10.3849 6.72443 9.88636C7.00781 9.38565 7.3892 9.00746 7.86861 8.75178C8.35014 8.49396 8.8892 8.36506 9.4858 8.36506C10.0781 8.36506 10.6151 8.49396 11.0966 8.75178C11.5781 9.00746 11.9606 9.38565 12.244 9.88636C12.5273 10.3849 12.669 10.9986 12.669 11.7273ZM10.8409 11.7273C10.8409 11.3352 10.7887 11.005 10.6843 10.7365C10.582 10.4659 10.4297 10.2614 10.2273 10.1229C10.027 9.98224 9.77983 9.91193 9.4858 9.91193C9.19176 9.91193 8.94354 9.98224 8.74112 10.1229C8.54084 10.2614 8.38849 10.4659 8.28409 10.7365C8.18182 11.005 8.13068 11.3352 8.13068 11.7273C8.13068 12.1193 8.18182 12.4506 8.28409 12.7212C8.38849 12.9897 8.54084 13.1942 8.74112 13.3349C8.94354 13.4734 9.19176 13.5426 9.4858 13.5426C9.77983 13.5426 10.027 13.4734 10.2273 13.3349C10.4297 13.1942 10.582 12.9897 10.6843 12.7212C10.7887 12.4506 10.8409 12.1193 10.8409 11.7273ZM14.0625 15.1023C13.8153 15.1023 13.6033 15.016 13.4265 14.8434C13.2518 14.6687 13.1655 14.4567 13.1676 14.2074C13.1655 13.9645 13.2518 13.7567 13.4265 13.5842C13.6033 13.4116 13.8153 13.3253 14.0625 13.3253C14.2969 13.3253 14.5036 13.4116 14.6825 13.5842C14.8636 13.7567 14.9553 13.9645 14.9574 14.2074C14.9553 14.3736 14.9116 14.5249 14.8263 14.6612C14.7433 14.7955 14.6346 14.9031 14.5004 14.984C14.3661 15.0629 14.2202 15.1023 14.0625 15.1023Z" fill="#FFB273"/>
</svg>
