<svg width="16" height="16" viewBox="0 0 16 16" fill="none" xmlns="http://www.w3.org/2000/svg">
<path d="M3.95028 3.5C3.93324 3.28693 3.85334 3.12074 3.71058 3.00142C3.56996 2.8821 3.35582 2.82244 3.06818 2.82244C2.88494 2.82244 2.73473 2.84482 2.61754 2.88956C2.50249 2.93217 2.41726 2.99077 2.36186 3.06534C2.30646 3.13991 2.2777 3.22514 2.27557 3.32102C2.27131 3.39986 2.28516 3.47124 2.31712 3.53516C2.35121 3.59695 2.40447 3.65341 2.47692 3.70455C2.54936 3.75355 2.64205 3.7983 2.75497 3.83878C2.8679 3.87926 3.00213 3.91548 3.15767 3.94744L3.6946 4.0625C4.05682 4.1392 4.36683 4.24041 4.62464 4.36612C4.88246 4.49183 5.09339 4.63991 5.25746 4.81037C5.42152 4.97869 5.5419 5.16832 5.61861 5.37926C5.69744 5.5902 5.73793 5.82031 5.74006 6.0696C5.73793 6.5 5.63033 6.86435 5.41726 7.16264C5.20419 7.46094 4.8995 7.68786 4.5032 7.84339C4.10902 7.99893 3.63494 8.0767 3.08097 8.0767C2.51207 8.0767 2.01563 7.99254 1.59162 7.82422C1.16974 7.65589 0.841619 7.39702 0.607244 7.04759C0.375 6.69602 0.257813 6.24645 0.255682 5.69886H1.94318C1.95384 5.89915 2.00391 6.06747 2.09339 6.20384C2.18288 6.3402 2.30859 6.44354 2.47053 6.51385C2.63459 6.58416 2.82955 6.61932 3.0554 6.61932C3.24503 6.61932 3.40376 6.59588 3.53161 6.54901C3.65945 6.50213 3.75639 6.43714 3.82244 6.35405C3.88849 6.27095 3.92259 6.17614 3.92472 6.0696C3.92259 5.96946 3.88956 5.8821 3.82564 5.80753C3.76385 5.73082 3.66158 5.66264 3.51882 5.60298C3.37607 5.54119 3.18324 5.48366 2.94034 5.4304L2.28835 5.28977C1.70881 5.16406 1.25178 4.95419 0.917259 4.66016C0.584872 4.36399 0.419744 3.96023 0.421875 3.44886C0.419744 3.03338 0.53054 2.6701 0.754261 2.35902C0.980114 2.04581 1.29226 1.80185 1.6907 1.62713C2.09126 1.45241 2.55043 1.36506 3.06818 1.36506C3.59659 1.36506 4.05362 1.45348 4.43928 1.63033C4.82493 1.80717 5.12216 2.05646 5.33097 2.3782C5.5419 2.6978 5.64844 3.07173 5.65057 3.5H3.95028ZM6.41602 8V1.45455H11.1333V2.88636H8.193V4.01136H10.8904V5.44318H8.193V6.56818H11.1206V8H6.41602ZM0.242898 9.88636V8.45455H5.93182V9.88636H3.96307V15H2.21165V9.88636H0.242898Z" fill="#8EEF97"/>
<path d="M6 11.5H5.5V12.5H6V12V11.5ZM15 12L10 9.11325V14.8868L15 12ZM6 12V12.5H10.5V12V11.5H6V12Z" fill="#DFDFDF"/>
</svg>
