<svg width="16" height="16" viewBox="0 0 16 16" fill="none" xmlns="http://www.w3.org/2000/svg">
<path d="M4.67259 3.61506C4.64489 3.50213 4.60121 3.40305 4.54155 3.31783C4.48189 3.23047 4.40732 3.15696 4.31783 3.0973C4.23047 3.03551 4.1282 2.9897 4.01101 2.95987C3.89595 2.92791 3.76918 2.91193 3.63068 2.91193C3.33239 2.91193 3.07777 2.98331 2.86683 3.12607C2.65803 3.26882 2.49822 3.47443 2.38743 3.7429C2.27876 4.01136 2.22443 4.33523 2.22443 4.71449C2.22443 5.09801 2.27663 5.42614 2.38104 5.69886C2.48544 5.97159 2.64098 6.1804 2.84766 6.32528C3.05433 6.47017 3.31108 6.54261 3.6179 6.54261C3.88849 6.54261 4.11328 6.5032 4.29226 6.42436C4.47337 6.34553 4.60867 6.23366 4.69815 6.08878C4.78764 5.94389 4.83239 5.77344 4.83239 5.57741L5.1392 5.60938H3.64347V4.34375H6.54545V5.25142C6.54545 5.84801 6.41868 6.35831 6.16513 6.78232C5.91371 7.20419 5.56641 7.52805 5.12322 7.75391C4.68217 7.97763 4.17614 8.08949 3.60511 8.08949C2.96804 8.08949 2.40874 7.95419 1.9272 7.68359C1.44567 7.413 1.0696 7.02734 0.799006 6.52663C0.53054 6.02592 0.396307 5.4304 0.396307 4.74006C0.396307 4.19886 0.478338 3.71946 0.642401 3.30185C0.808594 2.88423 1.03871 2.53161 1.33274 2.24396C1.62678 1.95419 1.96662 1.7358 2.35227 1.58878C2.73793 1.43963 3.15128 1.36506 3.59233 1.36506C3.98011 1.36506 4.3402 1.42045 4.67259 1.53125C5.0071 1.63991 5.3022 1.79545 5.55788 1.99787C5.8157 2.19815 6.02344 2.43572 6.18111 2.71058C6.33878 2.98544 6.43466 3.28693 6.46875 3.61506H4.67259ZM7.37402 8V1.45455H12.0914V2.88636H9.15101V4.01136H11.8485V5.44318H9.15101V6.56818H12.0786V8H7.37402ZM0.242898 9.88636V8.45455H5.93182V9.88636H3.96307V15H2.21165V9.88636H0.242898Z" fill="#8EEF97"/>
<path d="M15 12.5H15.5V11.5H15V12V12.5ZM6 12L11 14.8868V9.11325L6 12ZM15 12V11.5H10.5V12V12.5H15V12Z" fill="#DFDFDF"/>
</svg>
