<svg width="16" height="16" viewBox="0 0 16 16" fill="none" xmlns="http://www.w3.org/2000/svg">
<g clip-path="url(#clip0_108_49)">
<path d="M0.421875 8V1.45455H5.02415V2.88636H2.19886V4.01136H4.7429V5.44318H2.19886V8H0.421875ZM9.55131 1.45455H11.3283V5.64773C11.3283 6.14631 11.209 6.57777 10.9703 6.94212C10.7338 7.30433 10.4036 7.58452 9.97958 7.78267C9.55558 7.97869 9.06339 8.0767 8.50302 8.0767C7.93839 8.0767 7.44407 7.97869 7.02006 7.78267C6.59606 7.58452 6.2658 7.30433 6.0293 6.94212C5.79492 6.57777 5.67773 6.14631 5.67773 5.64773V1.45455H7.45472V5.49432C7.45472 5.69673 7.49947 5.87784 7.58896 6.03764C7.67844 6.19531 7.80202 6.31889 7.95969 6.40838C8.1195 6.49787 8.3006 6.54261 8.50302 6.54261C8.70756 6.54261 8.88867 6.49787 9.04634 6.40838C9.20401 6.31889 9.32759 6.19531 9.41708 6.03764C9.50657 5.87784 9.55131 5.69673 9.55131 5.49432V1.45455ZM6.08523 8.45455V15H4.60227L2.23722 11.5611H2.19886V15H0.421875V8.45455H1.9304L4.2571 11.8807H4.30824V8.45455H6.08523ZM13.0366 10.9091H11.234C11.2212 10.7599 11.1871 10.6246 11.1317 10.5032C11.0785 10.3817 11.0039 10.2773 10.908 10.19C10.8143 10.1005 10.7003 10.0323 10.5661 9.98544C10.4318 9.93643 10.2795 9.91193 10.109 9.91193C9.81072 9.91193 9.55824 9.98437 9.35156 10.1293C9.14702 10.2741 8.99148 10.4819 8.88494 10.7525C8.78054 11.0231 8.72834 11.348 8.72834 11.7273C8.72834 12.1278 8.78161 12.4634 8.88814 12.734C8.9968 13.0025 9.15341 13.2049 9.35795 13.3413C9.5625 13.4755 9.80859 13.5426 10.0962 13.5426C10.2603 13.5426 10.4073 13.5224 10.5373 13.4819C10.6673 13.4393 10.7802 13.3786 10.8761 13.2997C10.9719 13.2209 11.0497 13.1261 11.1094 13.0153C11.1712 12.9023 11.2127 12.7756 11.234 12.6349L13.0366 12.6477C13.0153 12.9247 12.9375 13.207 12.8033 13.4947C12.669 13.7802 12.4783 14.0444 12.2312 14.2873C11.9862 14.5281 11.6825 14.7219 11.3203 14.869C10.9581 15.016 10.5373 15.0895 10.0579 15.0895C9.45703 15.0895 8.91797 14.9606 8.4407 14.7028C7.96555 14.445 7.58949 14.0657 7.3125 13.565C7.03764 13.0643 6.90021 12.4517 6.90021 11.7273C6.90021 10.9986 7.04084 10.3849 7.32209 9.88636C7.60334 9.38565 7.9826 9.00746 8.45987 8.75178C8.93714 8.49396 9.46982 8.36506 10.0579 8.36506C10.4712 8.36506 10.8516 8.42152 11.1989 8.53445C11.5462 8.64737 11.8509 8.8125 12.1129 9.02983C12.375 9.24503 12.5859 9.5103 12.7457 9.82564C12.9055 10.141 13.0025 10.5021 13.0366 10.9091ZM14.8271 15.1023C14.58 15.1023 14.368 15.016 14.1911 14.8434C14.0164 14.6687 13.9301 14.4567 13.9323 14.2074C13.9301 13.9645 14.0164 13.7567 14.1911 13.5842C14.368 13.4116 14.58 13.3253 14.8271 13.3253C15.0615 13.3253 15.2682 13.4116 15.4472 13.5842C15.6283 13.7567 15.7199 13.9645 15.722 14.2074C15.7199 14.3736 15.6762 14.5249 15.591 14.6612C15.5079 14.7955 15.3992 14.9031 15.265 14.984C15.1308 15.0629 14.9848 15.1023 14.8271 15.1023Z" fill="#8EEF97"/>
</g>
<defs>
<clipPath id="clip0_108_49">
<rect width="16" height="16" fill="white"/>
</clipPath>
</defs>
</svg>
