<svg width="16" height="16" viewBox="0 0 16 16" fill="none" xmlns="http://www.w3.org/2000/svg">
<path d="M0.421875 8V1.45455H3.24716C3.73295 1.45455 4.15803 1.55043 4.52237 1.74219C4.88672 1.93395 5.1701 2.20348 5.37251 2.55078C5.57493 2.89808 5.67614 3.30398 5.67614 3.76847C5.67614 4.23722 5.57173 4.64311 5.36293 4.98615C5.15625 5.32919 4.86541 5.59339 4.49041 5.77876C4.11754 5.96413 3.68182 6.05682 3.18324 6.05682H1.49574V4.67614H2.82528C3.03409 4.67614 3.212 4.63991 3.35902 4.56747C3.50817 4.4929 3.62216 4.38743 3.70099 4.25107C3.78196 4.1147 3.82244 3.95384 3.82244 3.76847C3.82244 3.58097 3.78196 3.42116 3.70099 3.28906C3.62216 3.15483 3.50817 3.05256 3.35902 2.98224C3.212 2.9098 3.03409 2.87358 2.82528 2.87358H2.19886V8H0.421875ZM6.32812 8V1.45455H9.15341C9.6392 1.45455 10.0643 1.54297 10.4286 1.71982C10.793 1.89666 11.0763 2.15128 11.2788 2.48366C11.4812 2.81605 11.5824 3.21449 11.5824 3.67898C11.5824 4.14773 11.478 4.54297 11.2692 4.8647C11.0625 5.18643 10.7717 5.42933 10.3967 5.59339C10.0238 5.75746 9.58807 5.83949 9.08949 5.83949H7.40199V4.45881H8.73153C8.94034 4.45881 9.11825 4.43324 9.26527 4.3821C9.41442 4.32884 9.52841 4.24467 9.60724 4.12962C9.68821 4.01456 9.72869 3.86435 9.72869 3.67898C9.72869 3.49148 9.68821 3.33913 9.60724 3.22195C9.52841 3.10263 9.41442 3.01527 9.26527 2.95987C9.11825 2.90234 8.94034 2.87358 8.73153 2.87358H8.10511V8H6.32812ZM10.1634 4.99574L11.7997 8H9.86932L8.27131 4.99574H10.1634ZM6.76278 11.7273C6.76278 12.456 6.62109 13.0707 6.33771 13.5714C6.05433 14.07 5.67188 14.4482 5.19034 14.706C4.70881 14.9616 4.17188 15.0895 3.57955 15.0895C2.98295 15.0895 2.44389 14.9606 1.96236 14.7028C1.48295 14.4428 1.10156 14.0636 0.818182 13.565C0.536932 13.0643 0.396307 12.4517 0.396307 11.7273C0.396307 10.9986 0.536932 10.3849 0.818182 9.88636C1.10156 9.38565 1.48295 9.00746 1.96236 8.75178C2.44389 8.49396 2.98295 8.36506 3.57955 8.36506C4.17188 8.36506 4.70881 8.49396 5.19034 8.75178C5.67188 9.00746 6.05433 9.38565 6.33771 9.88636C6.62109 10.3849 6.76278 10.9986 6.76278 11.7273ZM4.93466 11.7273C4.93466 11.3352 4.88246 11.005 4.77805 10.7365C4.67578 10.4659 4.52344 10.2614 4.32102 10.1229C4.12074 9.98224 3.87358 9.91193 3.57955 9.91193C3.28551 9.91193 3.03729 9.98224 2.83487 10.1229C2.63459 10.2614 2.48224 10.4659 2.37784 10.7365C2.27557 11.005 2.22443 11.3352 2.22443 11.7273C2.22443 12.1193 2.27557 12.4506 2.37784 12.7212C2.48224 12.9897 2.63459 13.1942 2.83487 13.3349C3.03729 13.4734 3.28551 13.5426 3.57955 13.5426C3.87358 13.5426 4.12074 13.4734 4.32102 13.3349C4.52344 13.1942 4.67578 12.9897 4.77805 12.7212C4.88246 12.4506 4.93466 12.1193 4.93466 11.7273ZM7.58496 15V8.45455H10.4102C10.896 8.45455 11.3211 8.55043 11.6855 8.74219C12.0498 8.93395 12.3332 9.20348 12.5356 9.55078C12.738 9.89808 12.8392 10.304 12.8392 10.7685C12.8392 11.2372 12.7348 11.6431 12.526 11.9862C12.3193 12.3292 12.0285 12.5934 11.6535 12.7788C11.2806 12.9641 10.8449 13.0568 10.3463 13.0568H8.65882V11.6761H9.98837C10.1972 11.6761 10.3751 11.6399 10.5221 11.5675C10.6713 11.4929 10.7852 11.3874 10.8641 11.2511C10.945 11.1147 10.9855 10.9538 10.9855 10.7685C10.9855 10.581 10.945 10.4212 10.8641 10.2891C10.7852 10.1548 10.6713 10.0526 10.5221 9.98224C10.3751 9.9098 10.1972 9.87358 9.98837 9.87358H9.36195V15H7.58496ZM14.168 15.1023C13.9208 15.1023 13.7088 15.016 13.532 14.8434C13.3572 14.6687 13.271 14.4567 13.2731 14.2074C13.271 13.9645 13.3572 13.7567 13.532 13.5842C13.7088 13.4116 13.9208 13.3253 14.168 13.3253C14.4023 13.3253 14.609 13.4116 14.788 13.5842C14.9691 13.7567 15.0607 13.9645 15.0629 14.2074C15.0607 14.3736 15.017 14.5249 14.9318 14.6612C14.8487 14.7955 14.7401 14.9031 14.6058 14.984C14.4716 15.0629 14.3256 15.1023 14.168 15.1023Z" fill="#70E5FF"/>
</svg>
