<svg width="16" height="16" viewBox="0 0 16 16" fill="none" xmlns="http://www.w3.org/2000/svg">
<g clip-path="url(#clip0_108_67)">
<path d="M3.95028 3.5C3.93324 3.28693 3.85334 3.12074 3.71058 3.00142C3.56996 2.8821 3.35582 2.82244 3.06818 2.82244C2.88494 2.82244 2.73473 2.84482 2.61754 2.88956C2.50249 2.93217 2.41726 2.99077 2.36186 3.06534C2.30646 3.13991 2.2777 3.22514 2.27557 3.32102C2.27131 3.39986 2.28516 3.47124 2.31712 3.53516C2.35121 3.59695 2.40447 3.65341 2.47692 3.70455C2.54936 3.75355 2.64205 3.7983 2.75497 3.83878C2.8679 3.87926 3.00213 3.91548 3.15767 3.94744L3.6946 4.0625C4.05682 4.1392 4.36683 4.24041 4.62464 4.36612C4.88246 4.49183 5.09339 4.63991 5.25746 4.81037C5.42152 4.97869 5.5419 5.16832 5.61861 5.37926C5.69744 5.5902 5.73793 5.82031 5.74006 6.0696C5.73793 6.5 5.63033 6.86435 5.41726 7.16264C5.20419 7.46094 4.8995 7.68786 4.5032 7.84339C4.10902 7.99893 3.63494 8.0767 3.08097 8.0767C2.51207 8.0767 2.01563 7.99254 1.59162 7.82422C1.16974 7.65589 0.841619 7.39702 0.607244 7.04759C0.375 6.69602 0.257813 6.24645 0.255682 5.69886H1.94318C1.95384 5.89915 2.00391 6.06747 2.09339 6.20384C2.18288 6.3402 2.30859 6.44354 2.47053 6.51385C2.63459 6.58416 2.82955 6.61932 3.0554 6.61932C3.24503 6.61932 3.40376 6.59588 3.53161 6.54901C3.65945 6.50213 3.75639 6.43714 3.82244 6.35405C3.88849 6.27095 3.92259 6.17614 3.92472 6.0696C3.92259 5.96946 3.88956 5.8821 3.82564 5.80753C3.76385 5.73082 3.66158 5.66264 3.51882 5.60298C3.37607 5.54119 3.18324 5.48366 2.94034 5.4304L2.28835 5.28977C1.70881 5.16406 1.25178 4.95419 0.917259 4.66016C0.584872 4.36399 0.419744 3.96023 0.421875 3.44886C0.419744 3.03338 0.53054 2.6701 0.754261 2.35902C0.980114 2.04581 1.29226 1.80185 1.6907 1.62713C2.09126 1.45241 2.55043 1.36506 3.06818 1.36506C3.59659 1.36506 4.05362 1.45348 4.43928 1.63033C4.82493 1.80717 5.12216 2.05646 5.33097 2.3782C5.5419 2.6978 5.64844 3.07173 5.65057 3.5H3.95028ZM8.193 1.45455V8H6.41602V1.45455H8.193ZM4.67259 10.6151C4.64489 10.5021 4.60121 10.4031 4.54155 10.3178C4.48189 10.2305 4.40732 10.157 4.31783 10.0973C4.23047 10.0355 4.1282 9.9897 4.01101 9.95987C3.89595 9.92791 3.76918 9.91193 3.63068 9.91193C3.33239 9.91193 3.07777 9.98331 2.86683 10.1261C2.65803 10.2688 2.49822 10.4744 2.38743 10.7429C2.27876 11.0114 2.22443 11.3352 2.22443 11.7145C2.22443 12.098 2.27663 12.4261 2.38104 12.6989C2.48544 12.9716 2.64098 13.1804 2.84766 13.3253C3.05433 13.4702 3.31108 13.5426 3.6179 13.5426C3.88849 13.5426 4.11328 13.5032 4.29226 13.4244C4.47337 13.3455 4.60867 13.2337 4.69815 13.0888C4.78764 12.9439 4.83239 12.7734 4.83239 12.5774L5.1392 12.6094H3.64347V11.3438H6.54545V12.2514C6.54545 12.848 6.41868 13.3583 6.16513 13.7823C5.91371 14.2042 5.56641 14.5281 5.12322 14.7539C4.68217 14.9776 4.17614 15.0895 3.60511 15.0895C2.96804 15.0895 2.40874 14.9542 1.9272 14.6836C1.44567 14.413 1.0696 14.0273 0.799006 13.5266C0.53054 13.0259 0.396307 12.4304 0.396307 11.7401C0.396307 11.1989 0.478338 10.7195 0.642401 10.3018C0.808594 9.88423 1.03871 9.53161 1.33274 9.24396C1.62678 8.95419 1.96662 8.7358 2.35227 8.58878C2.73793 8.43963 3.15128 8.36506 3.59233 8.36506C3.98011 8.36506 4.3402 8.42045 4.67259 8.53125C5.0071 8.63991 5.3022 8.79545 5.55788 8.99787C5.8157 9.19815 6.02344 9.43572 6.18111 9.71058C6.33878 9.98544 6.43466 10.2869 6.46875 10.6151H4.67259ZM13.0374 8.45455V15H11.5544L9.18936 11.5611H9.15101V15H7.37402V8.45455H8.88255L11.2093 11.8807H11.2604V8.45455H13.0374ZM14.8623 15.1023C14.6151 15.1023 14.4031 15.016 14.2263 14.8434C14.0516 14.6687 13.9653 14.4567 13.9674 14.2074C13.9653 13.9645 14.0516 13.7567 14.2263 13.5842C14.4031 13.4116 14.6151 13.3253 14.8623 13.3253C15.0967 13.3253 15.3034 13.4116 15.4823 13.5842C15.6634 13.7567 15.7551 13.9645 15.7572 14.2074C15.7551 14.3736 15.7114 14.5249 15.6262 14.6612C15.5431 14.7955 15.4344 14.9031 15.3002 14.984C15.1659 15.0629 15.02 15.1023 14.8623 15.1023Z" fill="#FFDD65"/>
</g>
<defs>
<clipPath id="clip0_108_67">
<rect width="16" height="16" fill="white"/>
</clipPath>
</defs>
</svg>
